<svg width="24" height="24" viewBox="0 0 24 24" fill="none" xmlns="http://www.w3.org/2000/svg">
<g clip-path="url(#clip0_6_565)">
<mask id="mask0_6_565" style="mask-type:luminance" maskUnits="userSpaceOnUse" x="0" y="0" width="25" height="24">
<rect x="0.21875" width="24" height="24" fill="white"/>
</mask>
<g mask="url(#mask0_6_565)">
<path d="M21.2188 12C21.2188 7.03125 17.1875 3 12.2188 3C7.25 3 3.21875 7.03125 3.21875 12C3.21875 16.9688 7.25 21 12.2188 21C17.1875 21 21.2188 16.9688 21.2188 12Z" stroke="#4B5563" stroke-width="1.5"/>
<path d="M12.9688 15.75H12.2188V16.5V17.25C13.0472 17.25 13.7188 16.5784 13.7188 15.75H12.9688ZM12.2188 16.5V15.75H11.4688H10.7188C10.7188 16.5784 11.3903 17.25 12.2188 17.25V16.5ZM11.4688 15.75H12.2188V12.75H11.4688H10.7188V15.75H11.4688ZM11.4688 12.75V13.5H12.9688V12.75V12H11.4688V12.75ZM12.9688 12.75H12.2188V15.75H12.9688H13.7188V12.75H12.9688ZM11.4688 12.75V12H8.46875V12.75V13.5H11.4688V12.75ZM8.46875 12.75V12H7.71875H6.96875C6.96875 12.8284 7.64032 13.5 8.46875 13.5V12.75ZM7.71875 12H8.46875V11.25V10.5C7.64032 10.5 6.96875 11.1716 6.96875 12H7.71875ZM8.46875 11.25V12H11.4688V11.25V10.5H8.46875V11.25ZM11.4688 11.25H10.7188V12.75H11.4688H12.2188V11.25H11.4688ZM15.9688 11.25V12H16.7188H17.4688C17.4688 11.1716 16.7972 10.5 15.9688 10.5V11.25ZM16.7188 12H15.9688V12.75V13.5C16.7972 13.5 17.4688 12.8284 17.4688 12H16.7188ZM15.9688 12.75V12H12.9688V12.75V13.5H15.9688V12.75ZM12.9688 12.75H13.7188V11.25H12.9688H12.2188V12.75H12.9688ZM12.9688 11.25V12H15.9688V11.25V10.5H12.9688V11.25ZM12.2188 7.5V8.25H12.9688H13.7188C13.7188 7.42157 13.0472 6.75 12.2188 6.75V7.5ZM12.9688 8.25H12.2188V11.25H12.9688H13.7188V8.25H12.9688ZM12.9688 11.25V10.5H11.4688V11.25V12H12.9688V11.25ZM11.4688 11.25H12.2188V8.25H11.4688H10.7188V11.25H11.4688ZM11.4688 8.25H12.2188V7.5V6.75C11.3903 6.75 10.7188 7.42157 10.7188 8.25H11.4688Z" fill="#4B5563"/>
</g>
</g>
<defs>
<clipPath id="clip0_6_565">
<rect width="24" height="24" fill="white" transform="translate(0.21875)"/>
</clipPath>
</defs>
</svg>
