<svg width="24" height="23" viewBox="0 0 24 23" fill="none" xmlns="http://www.w3.org/2000/svg">
<g clip-path="url(#clip0_23_158)">
<mask id="mask0_23_158" style="mask-type:luminance" maskUnits="userSpaceOnUse" x="0" y="0" width="24" height="23">
<rect width="24" height="23" fill="white"/>
</mask>
<g mask="url(#mask0_23_158)">
<path d="M4.10109 17.0703C4.15688 16.8736 4.03359 16.6 3.91594 16.4028C3.89762 16.3734 3.87853 16.3444 3.85868 16.316C3.83882 16.2875 3.81822 16.2595 3.79688 16.2321C3.29233 15.4988 2.90837 14.7115 2.645 13.8702C2.38164 13.0289 2.24997 12.169 2.25 11.2907C2.23359 6.24818 6.59672 2.15625 11.992 2.15625C16.6973 2.15625 20.625 5.28012 21.5428 9.42686C21.6116 9.73425 21.6633 10.0443 21.6979 10.3569C21.7325 10.6695 21.7499 10.983 21.75 11.2974C21.75 16.3471 17.5552 20.5032 12.1598 20.5032C11.302 20.5032 10.1442 20.2966 9.51281 20.1272C8.88141 19.9579 8.25094 19.7333 8.08828 19.6731C8.0051 19.6424 7.91971 19.6193 7.83211 19.6037C7.7445 19.5881 7.65614 19.5802 7.56703 19.5801C7.4697 19.5797 7.37332 19.5888 7.2779 19.6071C7.18247 19.6255 7.08994 19.6529 7.00031 19.6893L3.82078 20.7889C3.78595 20.8033 3.75019 20.8151 3.7135 20.8243C3.6768 20.8335 3.6396 20.84 3.60188 20.8437C3.47659 20.8434 3.37005 20.8004 3.28225 20.7147C3.19444 20.6291 3.15145 20.5263 3.15328 20.4062C3.15524 20.3812 3.15856 20.3563 3.16327 20.3316C3.16797 20.3069 3.17401 20.2825 3.18141 20.2584L4.10109 17.0703Z" stroke="#4B5563" stroke-width="1.25" stroke-linecap="round"/>
</g>
</g>
<defs>
<clipPath id="clip0_23_158">
<rect width="24" height="23" fill="white"/>
</clipPath>
</defs>
</svg>
