<svg width="24" height="24" viewBox="0 0 24 24" fill="none" xmlns="http://www.w3.org/2000/svg">
<g clip-path="url(#clip0_6_555)">
<mask id="mask0_6_555" style="mask-type:luminance" maskUnits="userSpaceOnUse" x="-1" y="0" width="25" height="24">
<rect x="-0.367188" width="24" height="24" fill="white"/>
</mask>
<g mask="url(#mask0_6_555)">
<path d="M20.6328 12C20.6328 7.03125 16.6016 3 11.6328 3C6.66406 3 2.63281 7.03125 2.63281 12C2.63281 16.9688 6.66406 21 11.6328 21C16.6016 21 20.6328 16.9688 20.6328 12Z" stroke="#4B5563" stroke-width="1.5"/>
<path fill-rule="evenodd" clip-rule="evenodd" d="M16.0705 7.07484L10.5767 9.27234C10.1955 9.4248 9.85972 9.6462 9.56938 9.93654C9.27905 10.2269 9.05765 10.5627 8.90518 10.9439L6.70768 16.4377C6.6798 16.5073 6.6734 16.5789 6.68848 16.6524C6.70355 16.7259 6.73762 16.7891 6.79066 16.8422C6.84371 16.8952 6.90698 16.9293 6.98047 16.9444C7.05396 16.9594 7.12553 16.953 7.19518 16.9252L12.6889 14.7277C13.0702 14.5752 13.406 14.3538 13.6963 14.0635C13.9866 13.7731 14.208 13.4373 14.3605 13.0561L16.558 7.56234C16.5859 7.49269 16.5923 7.42112 16.5772 7.34763C16.5621 7.27414 16.5281 7.21087 16.475 7.15782C16.422 7.10477 16.3587 7.07071 16.2852 7.05564C16.2117 7.04056 16.1401 7.04696 16.0705 7.07484ZM11.6328 13.125C11.3222 13.125 11.057 13.0152 10.8373 12.7955C10.6177 12.5758 10.5078 12.3107 10.5078 12C10.5078 11.6893 10.6177 11.4242 10.8373 11.2045C11.057 10.9848 11.3222 10.875 11.6328 10.875C11.9435 10.875 12.2087 10.9848 12.4283 11.2045C12.648 11.4242 12.7578 11.6893 12.7578 12C12.7578 12.3107 12.648 12.5758 12.4283 12.7955C12.2087 13.0152 11.9435 13.125 11.6328 13.125Z" fill="#4B5563"/>
</g>
</g>
<defs>
<clipPath id="clip0_6_555">
<rect width="24" height="24" fill="white" transform="translate(-0.367188)"/>
</clipPath>
</defs>
</svg>
