<svg width="25" height="24" viewBox="0 0 25 24" fill="none" xmlns="http://www.w3.org/2000/svg">
<g clip-path="url(#clip0_6_545)">
<mask id="mask0_6_545" style="mask-type:luminance" maskUnits="userSpaceOnUse" x="0" y="0" width="25" height="24">
<rect x="0.734375" width="24" height="24" fill="white"/>
</mask>
<g mask="url(#mask0_6_545)">
<path d="M4.48438 9.9375V21C4.48438 21.2071 4.5576 21.3839 4.70405 21.5303C4.85049 21.6768 5.02727 21.75 5.23438 21.75H9.73438V15.375C9.73438 15.0643 9.84421 14.7992 10.0639 14.5795C10.2835 14.3598 10.5487 14.25 10.8594 14.25H14.6094C14.92 14.25 15.1852 14.3598 15.4049 14.5795C15.6245 14.7992 15.7344 15.0643 15.7344 15.375V21.75H20.2344C20.4415 21.75 20.6183 21.6768 20.7647 21.5303C20.9112 21.3839 20.9844 21.2071 20.9844 21V9.9375" stroke="#4B5563" stroke-width="1.5" stroke-linecap="round" stroke-linejoin="round"/>
<path d="M12.7373 1.50082L12.7387 0.750825L12.7386 0.750825L12.7373 1.50082ZM13.7617 1.89731L13.2329 2.42916L13.7632 2.95644L14.292 2.42764L13.7617 1.89731ZM13.7637 1.89536L14.2822 1.35348L13.7521 0.846239L13.2333 1.36503L13.7637 1.89536ZM17.2344 6.98422V7.73422H17.2344L17.2344 6.98422ZM19.4844 9.14047V9.89047H19.4844L19.4844 9.14047ZM23.7529 11.4579L23.2342 11.9996L23.2343 11.9996L23.7529 11.4579ZM23.7764 12.5184L24.3182 13.037L24.3184 13.0368L23.7764 12.5184ZM22.7734 12.5916L22.283 13.159L22.2971 13.1713L22.3119 13.1828L22.7734 12.5916ZM22.7158 12.5418L22.1972 13.0836L22.2109 13.0968L22.2254 13.1092L22.7158 12.5418ZM12.75 3.0018L13.2686 2.46002L13.0796 2.27904L12.8189 2.25498L12.75 3.0018ZM12.7344 3.00082L12.736 2.25082L12.7347 2.25082L12.7344 3.00082ZM12.7178 3.0018L12.6446 2.25538L12.3865 2.2807L12.1991 2.46005L12.7178 3.0018ZM2.75293 12.5418L3.27142 13.0838L3.27159 13.0836L2.75293 12.5418ZM1.69238 12.5184L1.15041 13.0368L1.1506 13.037L1.69238 12.5184ZM1.71582 11.4579L2.23444 11.9996L2.23445 11.9996L1.71582 11.4579ZM11.7051 1.89536L12.3759 1.55995L11.9211 0.650323L11.1864 1.35358L11.7051 1.89536ZM11.7061 1.89731L11.0352 2.23272L11.4989 3.1601L12.2346 2.42944L11.7061 1.89731ZM19.4844 2.24985L19.4844 1.49985H19.4844V2.24985ZM20.2344 2.99985H20.9844V2.99969L20.2344 2.99985ZM18.7344 3.74985H19.4844V2.99985H18.7344V3.74985ZM17.9844 3.74985V2.99985H17.2344V3.74985H17.9844ZM16.4844 2.99985L15.7344 2.99969V2.99985H16.4844ZM12.7373 1.50082L12.7359 2.25082C12.9237 2.25116 13.1142 2.31111 13.2329 2.42916L13.7617 1.89731L14.2905 1.36545C13.8041 0.881814 13.1788 0.751624 12.7387 0.750825L12.7373 1.50082ZM13.7617 1.89731L14.292 2.42764L14.294 2.42569L13.7637 1.89536L13.2333 1.36503L13.2314 1.36698L13.7617 1.89731ZM13.7637 1.89536L13.2451 2.43723L15.9658 5.04074L16.4844 4.49887L17.0029 3.957L14.2822 1.35348L13.7637 1.89536ZM16.4844 4.49887H15.7344V6.23422H16.4844H17.2344V4.49887H16.4844ZM16.4844 6.23422H15.7344C15.7344 7.06265 16.4059 7.73422 17.2344 7.73422V6.98422V6.23422H16.4844ZM17.2344 6.98422L17.2344 7.73422C18.0628 7.73419 18.7344 7.06267 18.7344 6.23422H17.9844H17.2344H17.2343L17.2344 6.98422ZM17.9844 6.23422H18.7344V5.93539H17.9844H17.2344V6.23422H17.9844ZM17.9844 5.93539L17.4658 6.47724L18.2158 7.19501L18.7344 6.65317L19.2529 6.11132L18.5029 5.39355L17.9844 5.93539ZM18.7344 6.65317H17.9844V8.39047H18.7344H19.4844V6.65317H18.7344ZM18.7344 8.39047H17.9844C17.9844 9.2189 18.6559 9.89047 19.4844 9.89047V9.14047V8.39047H18.7344ZM19.4844 9.14047L19.4844 9.89047C20.3128 9.89044 20.9844 9.21892 20.9844 8.39047H20.2344H19.4844H19.4843L19.4844 9.14047ZM20.2344 8.39047H20.9844V8.08871H20.2344H19.4844V8.39047H20.2344ZM20.2344 8.08871L19.7157 8.63042L23.2342 11.9996L23.7529 11.4579L24.2716 10.9161L20.7531 7.54701L20.2344 8.08871ZM23.7529 11.4579L23.2343 11.9996L23.2344 12L23.7764 12.5184L24.3184 13.0368C24.8908 12.4383 24.8698 11.4887 24.2716 10.9161L23.7529 11.4579ZM23.7764 12.5184L23.2346 11.9998L23.235 12.0005L22.7734 12.5916L22.3119 13.1828C22.9122 13.6515 23.7807 13.5985 24.3182 13.037L23.7764 12.5184ZM22.7734 12.5916L23.2639 12.0242L23.2063 11.9744L22.7158 12.5418L22.2254 13.1092L22.283 13.159L22.7734 12.5916ZM22.7158 12.5418L23.2345 12.0001L13.2686 2.46002L12.75 3.0018L12.2314 3.54358L22.1972 13.0836L22.7158 12.5418ZM12.75 3.0018L12.8189 2.25498C12.8188 2.25496 12.8186 2.25495 12.8183 2.25491C12.8179 2.25488 12.8174 2.25484 12.8169 2.25479C12.8158 2.25469 12.8142 2.25454 12.8123 2.25437C12.8085 2.25404 12.8028 2.25355 12.796 2.25306C12.7827 2.25211 12.7616 2.25088 12.736 2.25083L12.7344 3.00082L12.7327 3.75082C12.7126 3.75078 12.697 3.74982 12.689 3.74924C12.6821 3.74875 12.6756 3.74812 12.6811 3.74863L12.75 3.0018ZM12.7344 3.00082L12.7347 2.25082C12.6901 2.2508 12.6541 2.25444 12.6446 2.25538L12.7178 3.0018L12.791 3.74822C12.7908 3.74824 12.7841 3.7489 12.775 3.74951C12.7654 3.75013 12.7513 3.75083 12.734 3.75082L12.7344 3.00082ZM12.7178 3.0018L12.1991 2.46005L2.23427 12.0001L2.75293 12.5418L3.27159 13.0836L13.2364 3.54355L12.7178 3.0018ZM2.75293 12.5418L2.23444 11.9999L2.23417 11.9998L1.69238 12.5184L1.1506 13.037C1.72319 13.6352 2.67278 13.6565 3.27142 13.0838L2.75293 12.5418ZM1.69238 12.5184L2.23436 12L2.23444 11.9996L1.71582 11.4579L1.1972 10.9161C0.598991 11.4887 0.577859 12.4383 1.15041 13.0368L1.69238 12.5184ZM1.71582 11.4579L2.23445 11.9996L12.2237 2.43713L11.7051 1.89536L11.1864 1.35358L1.19719 10.9161L1.71582 11.4579ZM11.7051 1.89536L11.0343 2.23077L11.0352 2.23272L11.7061 1.89731L12.3769 1.5619L12.3759 1.55995L11.7051 1.89536ZM11.7061 1.89731L12.2346 2.42944C12.3547 2.31012 12.5466 2.25048 12.736 2.25082L12.7373 1.50082L12.7386 0.750825C12.2968 0.750033 11.6675 0.878482 11.1775 1.36518L11.7061 1.89731ZM19.4844 2.24985L19.4843 2.99985L19.4844 3L20.2344 2.99985L20.9844 2.99969C20.9842 2.17159 20.3129 1.49988 19.4844 1.49985L19.4844 2.24985ZM20.2344 2.99985H19.4844V8.08871H20.2344H20.9844V2.99985H20.2344ZM20.2344 8.08871L20.7529 7.54687L19.2529 6.11132L18.7344 6.65317L18.2158 7.19501L19.7158 8.63056L20.2344 8.08871ZM18.7344 6.65317H19.4844V3.74985H18.7344H17.9844V6.65317H18.7344ZM18.7344 3.74985V2.99985H17.9844V3.74985V4.49985H18.7344V3.74985ZM17.9844 3.74985H17.2344V5.93539H17.9844H18.7344V3.74985H17.9844ZM17.9844 5.93539L18.5031 5.39373L17.0031 3.9572L16.4844 4.49887L15.9656 5.04054L17.4656 6.47706L17.9844 5.93539ZM16.4844 4.49887H17.2344V2.99985H16.4844H15.7344V4.49887H16.4844ZM16.4844 2.99985L17.2344 3V2.99985V2.24985V1.49985C16.4058 1.49985 15.7345 2.17162 15.7344 2.99969L16.4844 2.99985ZM17.2344 2.24985V2.99985H19.4844V2.24985V1.49985H17.2344V2.24985Z" fill="#4B5563"/>
</g>
</g>
<defs>
<clipPath id="clip0_6_545">
<rect width="24" height="24" fill="white" transform="translate(0.734375)"/>
</clipPath>
</defs>
</svg>
