<svg width="32" height="32" viewBox="0 0 32 32" fill="none" xmlns="http://www.w3.org/2000/svg">
<g clip-path="url(#clip0_6_631)">
<mask id="mask0_6_631" style="mask-type:luminance" maskUnits="userSpaceOnUse" x="0" y="0" width="32" height="32">
<rect width="32" height="32" fill="white"/>
</mask>
<g mask="url(#mask0_6_631)">
<path d="M29.3988 0.0943604L9.40063 5.99999C8.98408 6.13083 8.64657 6.3722 8.3881 6.7241C8.12963 7.07599 8.00026 7.47024 8 7.90686V24.245C7.67255 24.1655 7.34159 24.1053 7.00713 24.0643C6.67267 24.0233 6.33696 24.0019 6 24C2.6875 24 0 25.7912 0 28C0 30.2087 2.6875 32 6 32C9.3125 32 12 30.2087 12 28V13.395L28 8.70749V20.2456C27.6726 20.1659 27.3416 20.1054 27.0072 20.0644C26.6727 20.0233 26.337 20.0018 26 20C22.6875 20 20 21.7912 20 24C20 26.2087 22.6875 28 26 28C29.3125 28 32 26.2094 32 24V1.99999C31.9994 1.3247 31.7267 0.787527 31.1819 0.388456C30.6372 -0.0106143 30.0428 -0.108646 29.3988 0.0943604Z" fill="#721111"/>
</g>
</g>
<defs>
<clipPath id="clip0_6_631">
<rect width="32" height="32" fill="white"/>
</clipPath>
</defs>
</svg>
