<svg width="24" height="24" viewBox="0 0 24 24" fill="none" xmlns="http://www.w3.org/2000/svg">
<g clip-path="url(#clip0_23_148)">
<mask id="mask0_23_148" style="mask-type:luminance" maskUnits="userSpaceOnUse" x="0" y="0" width="24" height="24">
<rect width="24" height="24" fill="white"/>
</mask>
<g mask="url(#mask0_23_148)">
<path fill-rule="evenodd" clip-rule="evenodd" d="M21.4073 19.7527L16.9969 15.3422C17.5278 14.6354 17.933 13.8627 18.2124 13.024C18.4918 12.1853 18.631 11.324 18.63 10.44C18.63 5.92406 14.9559 2.25 10.44 2.25C5.92406 2.25 2.25 5.92406 2.25 10.44C2.25 14.9559 5.92406 18.63 10.44 18.63C11.324 18.631 12.1853 18.4918 13.024 18.2124C13.8627 17.933 14.6354 17.5278 15.3422 16.9969L19.7527 21.4073C19.9844 21.6145 20.2557 21.7138 20.5664 21.7051C20.8772 21.6964 21.1425 21.5821 21.3623 21.3623C21.5821 21.1425 21.6964 20.8772 21.7051 20.5664C21.7138 20.2557 21.6145 19.9844 21.4073 19.7527ZM4.59 10.44C4.59 8.82457 5.16114 7.44571 6.30342 6.30342C7.44571 5.16114 8.82457 4.59 10.44 4.59C12.0554 4.59 13.4343 5.16114 14.5766 6.30342C15.7189 7.44571 16.29 8.82457 16.29 10.44C16.29 12.0554 15.7189 13.4343 14.5766 14.5766C13.4343 15.7189 12.0554 16.29 10.44 16.29C8.82537 16.2881 7.4472 15.7162 6.30548 14.5745C5.16376 13.4328 4.59194 12.0546 4.59 10.44Z" fill="#4B5563"/>
</g>
</g>
<defs>
<clipPath id="clip0_23_148">
<rect width="24" height="24" fill="white"/>
</clipPath>
</defs>
</svg>
