<svg width="21" height="20" viewBox="0 0 21 20" fill="none" xmlns="http://www.w3.org/2000/svg">
<g clip-path="url(#clip0_27_247)">
<mask id="mask0_27_247" style="mask-type:luminance" maskUnits="userSpaceOnUse" x="0" y="0" width="21" height="20">
<rect x="0.28125" width="20" height="20" fill="white"/>
</mask>
<g mask="url(#mask0_27_247)">
<circle cx="5.28125" cy="10" r="1.875" stroke="#4B5563" stroke-width="1.25"/>
<circle cx="15.2812" cy="4.375" r="1.875" stroke="#4B5563" stroke-width="1.25"/>
<circle cx="15.2812" cy="15.625" r="1.875" stroke="#4B5563" stroke-width="1.25"/>
<path d="M6.37006 10.6123L5.82541 10.3057L5.82532 10.3059L6.37006 10.6123ZM7.10541 10.3232L7.35567 9.7505L7.32644 9.73773L7.29606 9.728L7.10541 10.3232ZM7.22162 10.374L7.52807 9.82928L7.50068 9.81387L7.47188 9.80128L7.22162 10.374ZM13.9531 14.1611L14.3108 13.6486L14.286 13.6313L14.2595 13.6164L13.9531 14.1611ZM14.0566 14.2334L14.4656 13.7608L14.441 13.7395L14.4143 13.7209L14.0566 14.2334ZM14.1913 15.0117L14.7361 15.3181L14.7362 15.3179L14.1913 15.0117ZM13.457 15.3008L13.2067 15.8735L13.2359 15.8862L13.2662 15.8959L13.457 15.3008ZM13.3408 15.25L13.0344 15.7947L13.0617 15.8101L13.0905 15.8227L13.3408 15.25ZM6.60834 11.4638L6.24734 11.974L6.27377 11.9927L6.30198 12.0086L6.60834 11.4638ZM6.50482 11.3906L6.09496 11.8624L6.11844 11.8828L6.14383 11.9008L6.50482 11.3906ZM13.457 4.69821L13.2664 4.10297L13.236 4.11271L13.2067 4.1255L13.457 4.69821ZM14.1913 4.98727L14.7361 4.68086L14.7357 4.68026L14.1913 4.98727ZM13.9531 5.83884L14.2595 6.38358L14.2595 6.38357L13.9531 5.83884ZM7.22162 9.62497L7.47188 10.1977L7.50065 10.1851L7.52801 10.1697L7.22162 9.62497ZM7.10541 9.67575L7.29636 10.2709L7.32658 10.2612L7.35567 10.2485L7.10541 9.67575ZM6.37006 9.38669L5.82498 9.69249L5.82532 9.6931L6.37006 9.38669ZM6.60834 8.5361L6.30192 7.99137L6.3016 7.99155L6.60834 8.5361ZM13.3408 4.74899L13.0905 4.17628L13.0617 4.18886L13.0343 4.20426L13.3408 4.74899ZM6.37006 10.6123L6.9147 10.9188L6.91476 10.9184L7.10541 10.3232L7.29606 9.728C6.74273 9.55076 6.12199 9.77881 5.82541 10.3057L6.37006 10.6123ZM7.10541 10.3232L6.85515 10.8959L6.97136 10.9467L7.22162 10.374L7.47188 9.80128L7.35567 9.7505L7.10541 10.3232ZM7.22162 10.374L6.91516 10.9187L13.6466 14.7058L13.9531 14.1611L14.2595 13.6164L7.52807 9.82928L7.22162 10.374ZM13.9531 14.1611L13.5953 14.6736L13.6988 14.7458L14.0566 14.2334L14.4143 13.7209L14.3108 13.6486L13.9531 14.1611ZM14.0566 14.2334L13.6476 14.706C13.6462 14.7048 13.6465 14.7042 13.6467 14.7054C13.6468 14.7057 13.6467 14.7056 13.6468 14.7051C13.6469 14.7044 13.6472 14.7043 13.6465 14.7054L14.1913 15.0117L14.7362 15.3179C15.0322 14.7913 14.9063 14.1422 14.4656 13.7608L14.0566 14.2334ZM14.1913 15.0117L13.6466 14.7053C13.646 14.7064 13.646 14.7061 13.6466 14.7055C13.6471 14.7051 13.6473 14.7051 13.647 14.7052C13.646 14.7056 13.6463 14.7051 13.6477 14.7056L13.457 15.3008L13.2662 15.8959C13.8202 16.0735 14.4398 15.8448 14.7361 15.3181L14.1913 15.0117ZM13.457 15.3008L13.7072 14.728L13.591 14.6773L13.3408 15.25L13.0905 15.8227L13.2067 15.8735L13.457 15.3008ZM13.3408 15.25L13.6471 14.7052L6.9147 10.9191L6.60834 11.4638L6.30198 12.0086L13.0344 15.7947L13.3408 15.25ZM6.60834 11.4638L6.96933 10.9536L6.86582 10.8804L6.50482 11.3906L6.14383 11.9008L6.24734 11.974L6.60834 11.4638ZM6.50482 11.3906L6.91469 10.9188L6.91479 10.9187L6.37006 10.6123L5.82532 10.3059C5.52866 10.8333 5.65678 11.4818 6.09496 11.8624L6.50482 11.3906ZM13.457 4.69821L13.6475 5.29345C13.6456 5.29406 13.6454 5.29341 13.6468 5.29394C13.6472 5.29411 13.6472 5.29419 13.6469 5.29391C13.6463 5.29344 13.6464 5.29323 13.6469 5.29429L14.1913 4.98727L14.7357 4.68026C14.4396 4.15509 13.8205 3.92557 13.2664 4.10297L13.457 4.69821ZM14.1913 4.98727L13.6466 5.29368L13.6467 5.2941L13.9531 5.83884L14.2595 6.38357C14.8614 6.04498 15.0744 5.28231 14.7361 4.68086L14.1913 4.98727ZM13.9531 5.83884L13.6467 5.29409L6.91522 9.08022L7.22162 9.62497L7.52801 10.1697L14.2595 6.38358L13.9531 5.83884ZM7.22162 9.62497L6.97136 9.05226L6.85515 9.10304L7.10541 9.67575L7.35567 10.2485L7.47188 10.1977L7.22162 9.62497ZM7.10541 9.67575L6.91445 9.08064L6.91479 9.08028L6.37006 9.38669L5.82532 9.6931C6.12186 10.2203 6.74262 10.4485 7.29636 10.2709L7.10541 9.67575ZM6.37006 9.38669L6.91513 9.08088L6.91508 9.08065L6.60834 8.5361L6.3016 7.99155C5.70063 8.33008 5.48774 9.09139 5.82498 9.69249L6.37006 9.38669ZM6.60834 8.5361L6.91476 9.08083L13.6472 5.29372L13.3408 4.74899L13.0343 4.20426L6.30192 7.99137L6.60834 8.5361ZM13.3408 4.74899L13.591 5.3217L13.7072 5.27092L13.457 4.69821L13.2067 4.1255L13.0905 4.17628L13.3408 4.74899Z" fill="#4B5563"/>
</g>
</g>
<defs>
<clipPath id="clip0_27_247">
<rect width="20" height="20" fill="white" transform="translate(0.28125)"/>
</clipPath>
</defs>
</svg>
