<svg width="32" height="32" viewBox="0 0 32 32" fill="none" xmlns="http://www.w3.org/2000/svg">
<g clip-path="url(#clip0_6_643)">
<mask id="mask0_6_643" style="mask-type:luminance" maskUnits="userSpaceOnUse" x="0" y="0" width="32" height="32">
<rect width="32" height="32" fill="white"/>
</mask>
<g mask="url(#mask0_6_643)">
<rect x="3" y="5" width="26" height="22" rx="3" stroke="#721111" stroke-width="2"/>
<circle cx="21" cy="11" r="2" stroke="#721111" stroke-width="2"/>
<path d="M22.9851 17.7075L22.9388 16.7085L22.9387 16.7086L22.9851 17.7075ZM24.8162 18.226L25.4205 17.4293L25.4029 17.416L25.3847 17.4034L24.8162 18.226ZM25.0427 18.3979L25.7498 17.6908L25.7015 17.6425L25.6471 17.6012L25.0427 18.3979ZM25.0437 18.3989L24.3366 19.106L24.3686 19.1379L24.4033 19.1669L25.0437 18.3989ZM29.6404 22.2319L30.3234 21.5015L30.3026 21.4821L30.2808 21.4639L29.6404 22.2319ZM29.7156 22.3022L30.4306 21.6031L30.415 21.5871L30.3986 21.5718L29.7156 22.3022ZM29.7673 23.6411L30.5347 24.2822L30.5353 24.2815L29.7673 23.6411ZM28.3591 23.768L28.9996 23L28.9996 23L28.3591 23.768ZM23.7625 19.935H22.7625V20.4032L23.122 20.703L23.7625 19.935ZM23.7625 19.934H24.7625V19.4642L24.4008 19.1643L23.7625 19.934ZM23.0779 19.7055L23.0316 18.7066L23.0313 18.7066L23.0779 19.7055ZM22.4167 19.9975L23.1239 20.7046L23.1242 20.7042L22.4167 19.9975ZM14.7068 27.7075L15.4135 28.4149L15.4139 28.4146L14.7068 27.7075ZM13.2927 27.7075L12.5856 28.4146L12.5857 28.4146L13.2927 27.7075ZM13.2927 26.2934L12.5855 25.5864L12.5853 25.5867L13.2927 26.2934ZM18.2937 21.6948L17.5883 22.4036L17.6043 22.4195L17.621 22.4347L18.2937 21.6948ZM18.3689 21.7631L17.6962 22.5031L17.7163 22.5213L17.7373 22.5384L18.3689 21.7631ZM19.7078 21.6938L20.4153 22.4005L20.4155 22.4002L19.7078 21.6938ZM19.7058 20.2788L20.4123 19.571L20.4112 19.5699L19.7058 20.2788ZM21.0017 18.5844L21.7086 19.2918L21.7093 19.2911L21.0017 18.5844ZM12.0085 13.7465L12.0382 12.747L12.0381 12.747L12.0085 13.7465ZM14.0398 14.6235L13.333 15.3309L13.3333 15.3312L14.0398 14.6235ZM12.6267 16.0395H11.6267V16.4543L11.9203 16.7473L12.6267 16.0395ZM12.6267 16.0385H13.6267V15.6242L13.3336 15.3312L12.6267 16.0385ZM11.949 15.7465L11.9786 14.747L11.9783 14.747L11.949 15.7465ZM11.3328 15.934L10.7324 15.1343L10.7146 15.1477L10.6974 15.1618L11.3328 15.934ZM11.2556 15.9975L10.6203 15.2253L10.6055 15.2375L10.5912 15.2502L11.2556 15.9975ZM3.66382 22.7475L4.28969 23.5274L4.30939 23.5116L4.32828 23.4948L3.66382 22.7475ZM3.58472 22.811L4.1705 23.6215L4.19093 23.6067L4.21059 23.5909L3.58472 22.811ZM2.25269 22.6645L1.50524 23.3288L1.50548 23.3291L2.25269 22.6645ZM2.33569 21.2524L1.67123 20.5051L1.67106 20.5052L2.33569 21.2524ZM9.92749 14.5024L9.29829 13.7251L9.28032 13.7397L9.26303 13.7551L9.92749 14.5024ZM10.1531 14.3198L9.55951 13.515L9.54139 13.5284L9.52388 13.5425L10.1531 14.3198ZM22.9851 17.7075L23.0314 18.7064C23.4871 18.6853 23.8914 18.8025 24.2476 19.0487L24.8162 18.226L25.3847 17.4034C24.6614 16.9035 23.8235 16.6675 22.9388 16.7085L22.9851 17.7075ZM24.8162 18.226L24.2118 19.0227L24.4383 19.1946L25.0427 18.3979L25.6471 17.6012L25.4205 17.4293L24.8162 18.226ZM25.0427 18.3979L24.3356 19.105L24.3366 19.106L25.0437 18.3989L25.7508 17.6918L25.7498 17.6908L25.0427 18.3979ZM25.0437 18.3989L24.4033 19.1669L29 22.9999L29.6404 22.2319L30.2808 21.4639L25.6841 17.6309L25.0437 18.3989ZM29.6404 22.2319L28.9574 22.9623L29.0326 23.0326L29.7156 22.3022L30.3986 21.5718L30.3234 21.5015L29.6404 22.2319ZM29.7156 22.3022L29.0005 23.0012C29.0006 23.0013 29.0003 23.001 29 23.0005C28.9997 23.0001 28.9995 22.9997 28.9994 22.9994C28.9992 22.9991 28.9995 22.9996 28.9995 23.0005C28.9995 23.0014 28.9994 23.0015 28.9996 23.0008C29 22.9994 29.0006 22.9991 28.9994 23.0006L29.7673 23.6411L30.5353 24.2815C31.1985 23.4864 31.1401 22.3289 30.4306 21.6031L29.7156 22.3022ZM29.7673 23.6411L28.9999 22.9999L28.9996 23L28.3591 23.768L27.7186 24.536C28.5666 25.2432 29.8272 25.1291 30.5347 24.2822L29.7673 23.6411ZM28.3591 23.768L28.9996 23L24.4029 19.167L23.7625 19.935L23.122 20.703L27.7187 24.536L28.3591 23.768ZM23.7625 19.935H24.7625V19.934H23.7625H22.7625V19.935H23.7625ZM23.7625 19.934L24.4008 19.1643C24.0024 18.8339 23.5454 18.6828 23.0316 18.7066L23.0779 19.7055L23.1242 20.7044C23.1407 20.7037 23.1468 20.7046 23.1451 20.7044C23.1443 20.7043 23.1421 20.704 23.1386 20.7032C23.1352 20.7025 23.1312 20.7014 23.1269 20.6999C23.1226 20.6985 23.1187 20.697 23.1153 20.6954C23.112 20.6939 23.1098 20.6928 23.1089 20.6922C23.107 20.6911 23.112 20.6937 23.1241 20.7038L23.7625 19.934ZM23.0779 19.7055L23.0313 18.7066C22.5161 18.7306 22.0749 18.9248 21.7093 19.2908L22.4167 19.9975L23.1242 20.7042C23.1355 20.6929 23.1404 20.6897 23.1387 20.6909C23.138 20.6915 23.136 20.6928 23.1328 20.6946C23.1297 20.6964 23.126 20.6983 23.1219 20.7001C23.1177 20.7019 23.1138 20.7034 23.1105 20.7045C23.1071 20.7056 23.1049 20.7061 23.104 20.7063C23.1023 20.7067 23.1081 20.7052 23.1245 20.7044L23.0779 19.7055ZM22.4167 19.9975L21.7096 19.2904L13.9997 27.0004L14.7068 27.7075L15.4139 28.4146L23.1239 20.7046L22.4167 19.9975ZM14.7068 27.7075L14 27L13.9998 27.0003L13.2927 27.7075L12.5857 28.4146C13.3669 29.1957 14.6329 29.1948 15.4135 28.4149L14.7068 27.7075ZM13.2927 27.7075L13.9998 27.0004L14.0002 27.0002L13.2927 26.2934L12.5853 25.5867C11.8054 26.3673 11.8043 27.6333 12.5856 28.4146L13.2927 27.7075ZM13.2927 26.2934L13.9999 27.0004L18.7987 22.2006L18.0916 21.4936L17.3844 20.7866L12.5855 25.5864L13.2927 26.2934ZM18.0916 21.4936L17.3862 22.2024L17.5883 22.4036L18.2937 21.6948L18.9991 20.986L18.7969 20.7848L18.0916 21.4936ZM18.2937 21.6948L17.621 22.4347L17.6962 22.5031L18.3689 21.7631L19.0416 21.0232L18.9664 20.9548L18.2937 21.6948ZM18.3689 21.7631L17.7373 22.5384C18.524 23.1793 19.683 23.1336 20.4153 22.4005L19.7078 21.6938L19.0003 20.9871L19.0005 20.9879L18.3689 21.7631ZM19.7078 21.6938L20.4155 22.4002C21.1967 21.6176 21.1932 20.3505 20.4123 19.571L19.7058 20.2788L18.9994 20.9865C19.0003 20.9874 19.0004 20.9877 19.0001 20.9873C18.9999 20.987 18.9997 20.9866 18.9996 20.9863C18.9994 20.9858 18.9997 20.9863 18.9997 20.9876C18.9997 20.9888 18.9994 20.9891 18.9997 20.9883C18.9999 20.9879 19.0002 20.9874 19.0005 20.9869C19.0008 20.9864 19.0008 20.9865 19 20.9874L19.7078 21.6938ZM19.7058 20.2788L20.4112 19.5699L20.211 19.3707L19.5056 20.0795L18.8002 20.7884L19.0004 20.9876L19.7058 20.2788ZM19.5056 20.0795L20.2125 20.7869L21.7086 19.2918L21.0017 18.5844L20.2948 17.8771L18.7987 19.3722L19.5056 20.0795ZM21.0017 18.5844L21.7093 19.2911C22.0745 18.9254 22.5154 18.7304 23.0315 18.7064L22.9851 17.7075L22.9387 16.7086C21.9241 16.7557 21.0117 17.1594 20.2942 17.8778L21.0017 18.5844ZM12.0085 13.7465L11.9789 14.7461C12.507 14.7618 12.9585 14.9568 13.333 15.3309L14.0398 14.6235L14.7466 13.9161C14.0124 13.1825 13.0767 12.7778 12.0382 12.747L12.0085 13.7465ZM14.0398 14.6235L13.3333 15.3312L18.7991 20.7873L19.5056 20.0795L20.2121 19.3718L14.7463 13.9157L14.0398 14.6235ZM19.5056 20.0795L18.7985 19.3724L17.3844 20.7865L18.0916 21.4936L18.7987 22.2007L20.2127 20.7866L19.5056 20.0795ZM18.0916 21.4936L18.798 20.7858L13.3331 15.3317L12.6267 16.0395L11.9203 16.7473L17.3851 22.2014L18.0916 21.4936ZM12.6267 16.0395H13.6267V16.0385H12.6267H11.6267V16.0395H12.6267ZM12.6267 16.0385L13.3336 15.3312C12.9586 14.9563 12.5062 14.7626 11.9786 14.747L11.949 15.7465L11.9194 16.7461C11.9369 16.7466 11.9433 16.7481 11.9415 16.7478C11.9407 16.7476 11.9383 16.7471 11.9347 16.7459C11.9311 16.7448 11.9269 16.7433 11.9225 16.7414C11.9181 16.7395 11.9141 16.7375 11.9107 16.7356C11.9073 16.7337 11.9052 16.7323 11.9044 16.7317C11.9026 16.7304 11.9077 16.7338 11.9198 16.7458L12.6267 16.0385ZM11.949 15.7465L11.9783 14.747C11.5314 14.7338 11.1105 14.8505 10.7324 15.1343L11.3328 15.934L11.9331 16.7338C11.9371 16.7308 11.9361 16.732 11.9305 16.7349C11.9246 16.7379 11.917 16.7411 11.9089 16.7435C11.901 16.7459 11.8962 16.7465 11.8963 16.7465C11.8967 16.7465 11.9039 16.7456 11.9196 16.7461L11.949 15.7465ZM11.3328 15.934L10.6974 15.1618L10.6203 15.2253L11.2556 15.9975L11.891 16.7697L11.9681 16.7062L11.3328 15.934ZM11.2556 15.9975L10.5912 15.2502L2.99936 22.0002L3.66382 22.7475L4.32828 23.4948L11.9201 16.7448L11.2556 15.9975ZM3.66382 22.7475L3.03795 21.9676L2.95885 22.0311L3.58472 22.811L4.21059 23.5909L4.28969 23.5274L3.66382 22.7475ZM3.58472 22.811L2.99894 22.0005C2.99881 22.0006 2.99905 22.0004 2.99955 22.0002C3.00001 22 3.00039 21.9999 3.00059 21.9998C3.00084 21.9997 3.00035 21.9999 2.99942 21.9998C2.99857 21.9997 2.9986 21.9995 2.99943 22C3.00078 22.0006 3.00109 22.0013 2.99989 21.9999L2.25269 22.6645L1.50548 23.3291C2.19431 24.1036 3.34819 24.2158 4.1705 23.6215L3.58472 22.811ZM2.25269 22.6645L3.00013 22.0002L3.00033 21.9996L2.33569 21.2524L1.67106 20.5052C0.846234 21.2389 0.771458 22.5032 1.50524 23.3288L2.25269 22.6645ZM2.33569 21.2524L3.00015 21.9997L10.5919 15.2497L9.92749 14.5024L9.26303 13.7551L1.67123 20.5051L2.33569 21.2524ZM9.92749 14.5024L10.5567 15.2796L10.7823 15.097L10.1531 14.3198L9.52388 13.5425L9.29829 13.7251L9.92749 14.5024ZM10.1531 14.3198L10.7466 15.1246C11.1027 14.8619 11.5126 14.7323 11.979 14.7461L12.0085 13.7465L12.0381 12.747C11.1328 12.7202 10.2825 12.9818 9.55951 13.515L10.1531 14.3198Z" fill="#721111"/>
</g>
</g>
<defs>
<clipPath id="clip0_6_643">
<rect width="32" height="32" fill="white"/>
</clipPath>
</defs>
</svg>
