<svg width="20" height="18" viewBox="0 0 20 18" fill="none" xmlns="http://www.w3.org/2000/svg">
<g clip-path="url(#clip0_35_163)">
<mask id="mask0_35_163" style="mask-type:luminance" maskUnits="userSpaceOnUse" x="0" y="0" width="20" height="18">
<rect y="0.111084" width="20" height="17.7778" fill="white"/>
</mask>
<g mask="url(#mask0_35_163)">
<path fill-rule="evenodd" clip-rule="evenodd" d="M19.0852 4.92845C18.8671 4.19851 18.2246 3.62363 17.4087 3.42854C15.9299 3.07404 9.99999 3.07404 9.99999 3.07404C9.99999 3.07404 4.07013 3.07404 2.59127 3.42854C1.7754 3.62367 1.13283 4.19851 0.914744 4.92845C0.518494 6.2515 0.518494 9.01194 0.518494 9.01194C0.518494 9.01194 0.518494 11.7724 0.914744 13.0954C1.13283 13.8254 1.7754 14.3763 2.59127 14.5714C4.07013 14.9259 9.99999 14.9259 9.99999 14.9259C9.99999 14.9259 15.9298 14.9259 17.4087 14.5714C18.2246 14.3763 18.8671 13.8254 19.0852 13.0954C19.4815 11.7724 19.4815 9.01194 19.4815 9.01194C19.4815 9.01194 19.4815 6.2515 19.0852 4.92845ZM8.06058 11.5182V6.50567L13.0168 9.012L8.06058 11.5182Z" fill="#666666"/>
</g>
</g>
<defs>
<clipPath id="clip0_35_163">
<rect width="20" height="17.7778" fill="white" transform="translate(0 0.111084)"/>
</clipPath>
</defs>
</svg>
